<?xml version="1.0" encoding="UTF-8"?>
<!DOCTYPE svg PUBLIC "-//W3C//DTD SVG 1.1//EN" "http://www.w3.org/Graphics/SVG/1.1/DTD/svg11.dtd">
<!-- Creator: CorelDRAW 2020 (64-Bit) -->
<svg xmlns="http://www.w3.org/2000/svg" xml:space="preserve" width="45.8818mm" height="23.0015mm" version="1.1" style="shape-rendering:geometricPrecision; text-rendering:geometricPrecision; image-rendering:optimizeQuality; fill-rule:evenodd; clip-rule:evenodd"
viewBox="0 0 4553.15 2282.59"
 xmlns:xlink="http://www.w3.org/1999/xlink"
 xmlns:xodm="http://www.corel.com/coreldraw/odm/2003">
 <defs>
  <style type="text/css">
   <![CDATA[
    .fil1 {fill:#F49B17}
    .fil0 {fill:#FEFEFE;fill-rule:nonzero}
   ]]>
  </style>
 </defs>
 <g id="Слой_x0020_1">
  <metadata id="CorelCorpID_0Corel-Layer"/>
  <g id="_1882424613872">
   <path class="fil0" d="M1625.44 618.83c0,273.51 191.14,453.76 453.77,453.76 259.51,0 453.76,-183.37 453.76,-453.76l0 -590.51 -267.28 0 0 610.71c0,116.54 -76.14,188.03 -186.48,188.03 -110.34,0 -186.49,-71.49 -186.49,-188.03l0 -610.71 -267.28 0 0 590.51zm1428.11 194.25l450.65 -714.83 0 -69.92 -789.43 0 0 240.86 382.28 0 -449.09 714.84 0 69.92 857.79 0 0 -240.87 -452.2 0zm590.51 240.87l267.28 0 0 -410.25 374.51 0 0 410.25 267.28 0 0 -1025.62 -267.28 0 0 374.5 -374.51 0 0 -374.5 -267.28 0 0 1025.62z"/>
   <path class="fil0" d="M1625.44 1901.77l462.82 0 0 -161.2 -283.94 0 0 -525.22 -178.88 0 0 686.42zm556.42 0l178.88 0 0 -686.42 -178.88 0 0 686.42zm280.81 -343.21c-3.12,198.65 167.45,358.81 373.38,355.69 73.84,0 140.4,-17.68 199.68,-52 59.28,-35.37 105.04,-81.13 137.28,-138.33l0 -216.33 -339.05 0 0 153.93 160.17 0 0 32.23c-33.28,38.48 -85.28,61.37 -150.81,61.37 -121.68,0 -197.6,-79.04 -197.6,-196.57 0,-115.44 71.76,-191.37 187.21,-191.37 74.87,0 128.96,32.24 173.68,94.64l124.8 -106.08c-66.56,-98.8 -169.53,-152.88 -295.37,-152.88 -205.93,-3.12 -376.49,158.08 -373.38,355.69zm812.27 343.21l178.88 0 0 -274.57 250.65 0 0 274.57 178.88 0 0 -686.42 -178.88 0 0 250.64 -250.65 0 0 -250.64 -178.88 0 0 686.42zm893.39 0l178.89 0 0 -525.22 205.93 0 0 -161.2 -590.74 0 0 161.2 205.93 0 0 525.22z"/>
   <path class="fil0" d="M1625.45 2129.99c0,40.81 29.79,71.13 72.47,71.13 35.96,0 55.03,-23.35 55.03,-23.35l-11.01 -18.52c0,0 -16.64,18.79 -42.15,18.79 -25.49,0 -48.04,-17.45 -48.04,-48.32 0,-28.72 20.13,-48.59 46.7,-48.59 9.67,0 25.23,4.3 25.23,13.96l0 7.51 23.63 0 0 -13.95c0,-23.08 -32.48,-29.8 -48.85,-29.8 -43.75,0 -73.01,31.14 -73.01,71.13zm191.91 67.92l25.77 0 0 -113.55 26.31 0c3.76,0 5.9,2.15 5.9,5.9l0 9.13 21.47 0 0 -20.67c0,-12.08 -5.1,-16.64 -17.18,-16.64l-98.78 0c-12.08,0 -17.18,4.56 -17.18,16.64l0 20.67 21.47 0 0 -9.13c0,-3.75 2.14,-5.9 5.9,-5.9l26.3 0 0 113.55zm117.04 56.37c19.05,0 35.43,-11.01 44.02,-31.94l53.41 -132.6c1.89,-4.3 4.3,-5.37 8.59,-5.37l3.49 0 0 -22.28 -15.57 0c-11.01,0 -15.84,2.96 -19.6,13.68l-28.45 76.5c-2.41,6.99 -4.56,16.37 -4.56,16.37l-0.54 0c0,0 -2.14,-9.39 -4.83,-16.37l-30.59 -76.5c-4.3,-10.73 -8.59,-13.68 -19.6,-13.68l-15.3 0 0 22.28 3.49 0c4.3,0 6.44,1.07 8.32,5.37l46.44 107.63 -6.17 14.77c-5.1,12.08 -13.43,19.6 -23.89,19.6 -11.28,0 -19.6,-8.86 -19.87,-9.67l-10.74 18.79c0,0 11.81,13.43 31.94,13.43zm115.69 -61.2l0 37.04 23.89 0 0 -26.3c0,-3.76 2.14,-5.9 5.64,-5.9l93.14 0c3.49,0 5.64,2.14 5.64,5.9l0 26.3 23.89 0 0 -37.04c0,-11.54 -4.55,-16.91 -16.37,-16.91l-4.29 0 0 -96.9c0,-12.08 -5.1,-17.18 -17.19,-17.18l-89.92 0 0 22.28 16.64 0 0 6.17c0,19.87 -0.8,60.4 -22.55,85.63l-2.14 0c-11.82,0 -16.37,5.37 -16.37,16.91zm44.83 -16.91c20.39,-25.77 20.94,-67.1 20.94,-85.9l0 -5.9 33.82 0c3.75,0 5.9,1.88 5.9,5.9l0 85.9 -60.66 0zm133.94 -140.66l23.35 0 0 -27.11 -23.35 0 0 27.11zm-0.54 145.21c0,12.09 5.1,17.19 17.18,17.19l25.77 0 0 -22.28 -11.01 0c-3.76,0 -5.9,-1.89 -5.9,-5.91l0 -90.45c0,-12.08 -5.1,-17.18 -17.46,-17.18l-25.49 0 0 22.28 11.01 0c3.76,0 5.9,1.88 5.9,5.9l0 90.45zm54.49 17.19l12.35 0c13.16,0 16.11,-1.62 24.15,-12.62l19.87 -27.65c5.1,-7.51 6.98,-9.12 14.5,-9.12l15.03 0 0 49.39 26.03 0 0 -113.55 16.91 0 0 -22.28 -74.08 0c-26.58,0 -45.64,16.37 -45.64,41.33 0,21.21 12.89,34.1 30.07,38.12l0 0.54c-2.95,1.89 -5.1,4.3 -6.98,6.99l-15.3 21.21c-2.96,4.29 -5.9,5.37 -12.61,5.37l-4.3 0 0 22.28zm63.07 -68.19c-16.64,0 -27.92,-9.66 -27.92,-24.96 0,-14.77 9.67,-24.7 27.11,-24.7l23.63 0 0 49.66 -22.82 0zm149.79 68.19l12.35 0c13.15,0 16.11,-1.62 24.15,-12.62l19.87 -27.65c5.1,-7.51 6.98,-9.12 14.49,-9.12l15.03 0 0 49.39 26.04 0 0 -113.55 16.91 0 0 -22.28 -74.08 0c-26.58,0 -45.64,16.37 -45.64,41.33 0,21.21 12.88,34.1 30.06,38.12l0 0.54c-2.95,1.89 -5.09,4.3 -6.98,6.99l-15.29 21.21c-2.96,4.29 -5.9,5.37 -12.62,5.37l-4.29 0 0 22.28zm63.07 -68.19c-16.64,0 -27.92,-9.66 -27.92,-24.96 0,-14.77 9.67,-24.7 27.11,-24.7l23.62 0 0 49.66 -22.81 0zm94.48 68.19l26.04 0 0 -60.13 11.01 0c5.64,0 10.19,0.54 13.15,5.37l24.15 42.14c5.64,10.47 9.93,12.62 22.55,12.62l18.8 0 0 -22.28 -8.05 0c-6.72,0 -9.13,-1.08 -11.82,-5.37l-19.86 -33.29c-5.1,-8.32 -10.2,-10.19 -10.2,-10.19l0 -0.54c0,0 4.3,-1.62 10.2,-10.2l37.3 -53.95 -29.25 0 -32.48 47.24c-3.22,4.83 -8.58,6.18 -14.22,6.18l-11.27 0 0 -36.24c0,-12.08 -5.1,-17.18 -17.18,-17.18l-25.77 0 0 22.28 11.01 0c3.76,0 5.9,1.88 5.9,5.9l0 107.64zm143.34 -162.4l23.35 0 0 -27.11 -23.35 0 0 27.11zm-0.54 145.21c0,12.09 5.1,17.19 17.18,17.19l25.77 0 0 -22.28 -11.02 0c-3.75,0 -5.9,-1.89 -5.9,-5.91l0 -90.45c0,-12.08 -5.09,-17.18 -17.45,-17.18l-25.49 0 0 22.28 11.01 0c3.75,0 5.9,1.88 5.9,5.9l0 90.45zm57.44 -50.73c0,40.81 29.8,71.13 72.48,71.13 35.96,0 55.02,-23.35 55.02,-23.35l-11 -18.52c0,0 -16.65,18.79 -42.15,18.79 -25.5,0 -48.05,-17.45 -48.05,-48.32 0,-28.72 20.14,-48.59 46.71,-48.59 9.66,0 25.23,4.3 25.23,13.96l0 7.51 23.62 0 0 -13.95c0,-23.08 -32.48,-29.8 -48.84,-29.8 -43.75,0 -73.02,31.14 -73.02,71.13zm156.23 67.92l26.03 0 0 -58.52 68.72 0 0 41.33c0,12.09 5.1,17.19 17.18,17.19l25.49 0 0 -22.28 -10.73 0c-3.76,0 -5.9,-1.89 -5.9,-5.91l0 -107.63 -26.04 0 0 55.56 -68.72 0 0 -38.38c0,-12.08 -5.1,-17.18 -17.18,-17.18l-25.76 0 0 22.28 11.01 0c3.75,0 5.9,1.88 5.9,5.9l0 107.64zm152.46 -68.19c0,41.34 32.48,71.4 73.01,71.4 40.54,0 73.29,-30.06 73.29,-71.4 0,-41.06 -32.75,-70.86 -73.29,-70.86 -40.53,0 -73.01,29.8 -73.01,70.86zm26.31 0c0,-28.18 21.21,-48.31 46.7,-48.31 25.77,0 46.71,20.13 46.71,48.31 0,28.45 -20.94,48.85 -46.71,48.85 -25.49,0 -46.7,-20.4 -46.7,-48.85zm170.72 -94.22l19.59 0 0 -27.11 -19.59 0 0 27.11zm-37.58 0l19.87 0 0 -27.11 -19.87 0 0 27.11zm18.25 145.21c0,12.09 5.1,17.19 17.19,17.19l25.76 0 0 -22.28 -11.01 0c-3.75,0 -5.9,-1.89 -5.9,-5.91l0 -90.45c0,-12.08 -5.1,-17.18 -17.45,-17.18l-25.49 0 0 22.28 11 0c3.76,0 5.9,1.88 5.9,5.9l0 90.45zm143.62 70.86l26.03 0 0 -60.4c0,-6.98 -0.54,-11.81 -0.54,-11.81l0.54 0c0,0 11.54,21.74 41.61,21.74 35.71,0 61.74,-27.92 61.74,-71.13 0,-42.14 -23.08,-71.13 -59.86,-71.13 -33.82,0 -45.09,24.16 -45.09,24.16l-0.54 0c0,0 0.27,-3.23 0.27,-7.25 0,-8.58 -4.56,-13.68 -16.64,-13.68l-24.42 0 0 22.28 11.01 0c3.75,0 5.9,1.88 5.9,5.9l0 161.32zm25.23 -121.06c0,-34.62 19.06,-48.84 39.19,-48.84 22.56,0 38.38,19.05 38.38,48.58 0,30.87 -17.71,48.59 -38.92,48.59 -25.49,0 -38.65,-24.15 -38.65,-48.32zm122.13 -0.54c0,40.27 29.53,71.13 72.21,71.13 18.79,0 39.46,-7.24 52.61,-19.32l-11.01 -19.06c-10.74,9.4 -25.49,15.84 -39.99,15.84 -24.42,0 -45.36,-16.37 -46.98,-45.9l99.06 0c0.53,-3.49 0.8,-6.99 0.8,-10.2 0,-35.17 -20.14,-63.62 -58.52,-63.62 -38.65,0 -68.19,27.92 -68.19,71.13zm27.93 -14.49c3.75,-22.81 19.59,-36.24 39.72,-36.24 17.71,0 32.21,12.35 33.02,36.24l-72.74 0zm130.71 82.41l26.04 0 0 -60.13 11.01 0c5.64,0 10.2,0.54 13.15,5.37l24.16 42.14c5.64,10.47 9.92,12.62 22.55,12.62l18.79 0 0 -22.28 -8.05 0c-6.71,0 -9.13,-1.08 -11.81,-5.37l-19.87 -33.29c-5.1,-8.32 -10.2,-10.19 -10.2,-10.19l0 -0.54c0,0 4.3,-1.62 10.2,-10.2l37.31 -53.95 -29.25 0 -32.48 47.24c-3.23,4.83 -8.59,6.18 -14.23,6.18l-11.27 0 0 -36.24c0,-12.08 -5.1,-17.18 -17.18,-17.18l-25.77 0 0 22.28 11.01 0c3.76,0 5.9,1.88 5.9,5.9l0 107.64zm123.75 0.8c49.93,0.27 56.9,-69.26 56.9,-103.61l0 -10.74 31.14 0c3.75,0 5.9,1.88 5.9,5.9l0 90.45c0,12.09 5.1,17.19 17.45,17.19l25.49 0 0 -22.28 -11.01 0c-3.75,0 -5.89,-1.89 -5.89,-5.91l0 -90.45c0,-12.08 -5.1,-17.18 -17.19,-17.18l-87.76 0 0 22.28 16.9 0 0 10.47c0,33.02 -7.51,80.25 -31.93,80.8l0 23.08zm150.31 -37.85c0,26.04 22.01,40.26 45.63,40.26 32.21,0 44.02,-26.84 43.75,-26.84l0.54 0c0,0 -0.27,3.23 -0.27,8.06 0,9.66 4.56,15.57 16.64,15.57l24.7 0 0 -22.28 -11.01 0c-3.76,0 -5.9,-1.89 -5.9,-5.91l0 -57.71c0,-30.33 -11.81,-53.15 -56.63,-53.15 -12.35,0 -46.44,3.49 -46.44,25.24l0 13.69 24.69 0 0 -7.79c0,-8.86 15.84,-10.47 22.28,-10.47 20.94,0 30.07,8.59 30.07,31.94l0 1.88 -5.9 0c-22.81,0 -82.14,1.89 -82.14,47.51zm26.04 -2.42c0,-24.42 35.43,-26.3 55.03,-26.3l6.98 0 0 5.09c0,20.14 -13.96,43.22 -36.51,43.22 -16.91,0 -25.49,-11.01 -25.49,-22.01zm113.54 39.47l19.87 0c11.27,0 13.95,-5.1 14.77,-14.77l5.09 -64.16c0.55,-8.32 0.55,-24.42 0.55,-24.42l0.54 0c0,0 3.48,10.74 7.78,20.67l31.14 66.3 24.69 0 31.68 -66.3c4.83,-10.47 8.05,-20.4 8.05,-20.4l0.55 0c0,0 0,15.84 0.54,24.15l5.1 64.16c0.8,9.67 3.48,14.77 14.76,14.77l19.87 0 0 -22.28 -6.98 0c-3.23,0 -4.83,-1.62 -5.1,-5.1l-9.4 -108.45 -28.45 0 -35.17 77.84c-3.48,8.06 -7.24,16.91 -7.24,16.91l-0.27 0c0,0 -3.49,-8.85 -6.98,-16.91l-35.44 -77.84 -28.45 0 -9.39 108.45c-0.27,3.48 -1.89,5.1 -5.1,5.1l-6.99 0 0 22.28zm212.59 0l25.77 0 58.51 -81.6c4.56,-6.17 11.54,-16.64 12.62,-19.06l0.54 0c-0.27,2.15 -1.08,12.35 -1.08,19.06l0 64.41c0,12.09 5.1,17.19 17.19,17.19l23.89 0 0 -22.28 -10.74 0c-3.49,0 -5.64,-1.89 -5.64,-5.91l0 -107.63 -25.77 0 -58.51 81.6c-4.56,6.17 -11.54,16.64 -12.62,18.79l-0.54 0c0.27,-1.34 1.07,-11.54 1.07,-18.79l0 -64.69c0,-12.08 -5.09,-16.91 -17.18,-16.91l-23.89 0 0 22.28 10.74 0c3.49,0 5.64,1.88 5.64,5.9l0 107.64z"/>
  </g>
  <path class="fil1" d="M464.18 1520.48l-163.12 16.78 -4.23 -26.61c-10.94,-68.88 -24.59,-135.65 -62.25,-195.34 -9.67,-15.32 -20.35,-30.03 -31,-44.67 -13.49,-18.54 -26.88,-37.04 -39.69,-56.05 -40.99,-60.82 -75.45,-125.23 -106.72,-191.52l-0.29 -0.64c-32.71,-74.01 -50.69,-154.45 -55.53,-235.1 -8.14,-135.33 20.49,-279.48 88.86,-397.31 97.59,-168.21 237.67,-292.36 424.39,-352.09 267.67,-85.63 530.41,-24.09 737.49,162.14 107.65,96.81 183.29,225.13 218.59,365.35 49.71,197.42 19.99,377.63 -85.44,550.67 -12.26,20.12 -25.29,39.75 -38.95,58.94 -52.79,74.15 -95.92,151.95 -121.36,239.82 -29.91,103.37 -68.62,192.14 -174.31,234.72 -26.07,10.5 -55.6,16.86 -83.23,21.71 -32.69,5.74 -65.83,9.64 -98.85,12.89 -176.23,17.36 -352.75,31.93 -529.18,47.12l-28.66 -148.71 503.12 -47.09c48.67,-4.56 101.83,-6.19 149.31,-17.15 27.23,-6.28 51.26,-17.18 69.53,-38.88 27.66,-32.88 41.85,-93.21 54.28,-134.01 18.72,-61.42 46.38,-116.93 79.7,-171.58 29.34,-48.15 62.1,-94.14 91.25,-142.37 25.3,-41.86 47.1,-84.73 61.59,-131.6 75.92,-245.61 -46.95,-533.39 -266.87,-661.35 -140.98,-82.04 -303.5,-108.72 -461.56,-64.92 -141.85,39.3 -266.62,131.46 -347.06,254.58 -55.07,84.29 -87.91,180.97 -92.72,281.72 -5.36,112.24 24.35,219.94 79.73,317.2 28.43,49.95 60.97,94.96 92.94,142.42 40.87,60.69 71.01,117.52 95.26,186.91 7.15,20.45 12.91,42.37 18.62,63.29 6.23,22.84 12.26,45.75 18.14,68.68l8.23 32zm106.29 -10.94l-142.76 -693.95c-8.31,-40.4 0.38,-79.93 24.85,-113.12 24.64,-33.42 59.38,-53.16 100.71,-57.19l460.2 -44.94 -15.98 151.38 -412.81 40.37c-2.78,0.27 -4.39,1.18 -6.04,3.43 -1.65,2.23 -2.05,4.06 -1.49,6.79l142.4 691.91 -149.07 15.33zm422.44 -711.93l-76.65 676.37 -151.66 15.6 77.38 -673.11 150.93 -18.85zm-617.25 1121.74l-28.84 -149.26 745.97 -69.48 -8.82 150.27 -708.31 68.46zm311.8 161.79c13.03,13.45 36.04,44.17 50.36,49.56 24.9,9.35 38.35,-21.77 46.73,-36.84l10.44 -18.81 142.33 33.42 -8.33 28.77c-16.22,56.07 -63.74,112.23 -118.78,133.58 -65.9,25.57 -147.25,8.53 -196.49,-42.41 -13.36,-13.82 -23.44,-28.61 -35.2,-43.54 -21.02,-26.67 -41.56,-37.1 -74.54,-45.6 -20.01,-5.15 -46.1,-6.56 -63.43,-17.32 -39.52,-24.53 -49.24,-121.13 -57.55,-164.02l690.96 -63.25 0.09 149.77c-128.78,13.52 -257.97,22.69 -386.62,36.69z"/>
 </g>
</svg>
